<mxfile host="app.diagrams.net" modified="2024-04-02T04:43:06.395Z" agent="Mozilla/5.0 (Windows NT 10.0; Win64; x64) AppleWebKit/537.36 (KHTML, like Gecko) Chrome/123.0.0.0 Safari/537.36 Edg/123.0.0.0" version="24.1.0" etag="kiARcpgAuWMeupgZzjci" type="github">
  <diagram name="Page-1" id="L8kWlo-Cukp7Dflq07ac">
    <mxGraphModel>
      <root>
        <mxCell id="0" />
        <mxCell id="1" parent="0" />
      </root>
    </mxGraphModel>
  </diagram>
</mxfile>
